# xmcd
#
# Track frame offsets:
#	180
#	17870
#	35868
#	54925
#	66842
#	84232
#	100952
#	117623
#	129779
#	147848
#	163364
#	180978
#	198013
#	209929
#	227632
#
# Disc length: 3200 seconds
#
# Revision: 3
# Processed by: cddbd v1.5.2PL0 Copyright (c) Steve Scherf et al.
# Submitted via: audiograbber 1.83.01
#
DISCID=d40c7e0f
DTITLE=Sound Choice - SC8171
DYEAR=1995
DGENRE=Karaoke Country
TTITLE0=Tritt, Travis - Tell Me I Was Dreaming
TTITLE1=Gregg, Ricky Lynn - To Find Where I Belong
TTITLE2=Western Flyer - Cherokee Highway
TTITLE3=Carson, Jeff - Yeah Buddy
TTITLE4=Montana, Billy - Didn't Have You
TTITLE5=Brokop, Lisa - One Of Those Nights
TTITLE6=Gates, David - Save This Dance For Me
TTITLE7=Montgomery, John Michael - Sold
TTITLE8=Blackhawk - That's Just About Right
TTITLE9=Boy Howdy - Bigger Fish To Fry
TTITLE10=Highwaymen, The - It Is What It Is
TTITLE11=Cyrus, Billy Ray - One Last Thrill
TTITLE12=Stewart, Larry - Rockin' The Rock
TTITLE13=Crowell, Rodney - Please Remember Me
TTITLE14=Shenandoah - Darned If I Don't Danged If I Do
EXTD=
EXTT0=
EXTT1=
EXTT2=
EXTT3=
EXTT4=
EXTT5=
EXTT6=
EXTT7=
EXTT8=
EXTT9=
EXTT10=
EXTT11=
EXTT12=
EXTT13=
EXTT14=
PLAYORDER=
